# xmcd
#
# Track frame offsets: 
#        150
#        17281
#        33863
#        50556
#        65871
#        79836
#        98001
#        116596
#        132227
#        148618
#        168225
#        186295
#
# Disc length: 2704 seconds
#
# Revision: 2
# Processed by: cddbd v1.5.2PL0 Copyright (c) Steve Scherf et al.
# Submitted via: ExactAudioCopy v0.99pb5
#
DISCID=9d0a8e0c
DTITLE=Raul Paz - En casa
DYEAR=2006
DGENRE=Salsa
TTITLE0=En casa
TTITLE1=25 años
TTITLE2=Le temps passe
TTITLE3=No me incomodes
TTITLE4=Te fuisté
TTITLE5=Tu y yo
TTITLE6=La ventena
TTITLE7=Azul
TTITLE8=Cubano
TTITLE9=Solos
TTITLE10=Canciones
TTITLE11=Distancia
EXTD=YEAR: 2006
EXTT0=
EXTT1=
EXTT2=
EXTT3=
EXTT4=
EXTT5=
EXTT6=
EXTT7=
EXTT8=
EXTT9=
EXTT10=
EXTT11=
PLAYORDER=
